<?xml version="1.0" encoding="UTF-8"?>
<svg xmlns="http://www.w3.org/2000/svg" width="1e3" height="1e3" viewBox="0 0 1e3 1e3"><style>path {fill: #585248} @media (prefers-color-scheme: dark) {path {fill:#DBD3B5}}</style><path d="m146 21.4 172 364 4.76-20.3 10.1-44.9a3.33 3.33 0 0 1-0.236-1.32l20.4-88.3-208-209zm705 0.00391-208 210 36 154 172-364zm-708 17.5 67.7 318 98.6 31.1-166-349zm711 0.00586-166 349 98.6-31.1 67.7-318zm-359 153-133 40.2-20.3 86.7 127 194 25.9-321zm7.41 0 25.9 321 128-195-19.7-85.2-134-40.6zm-3.71 36.8-23.7 293 23.9 30.7 23-29.6 0.0996-0.375a3.33 3.33 0 0 1 0.289-0.65l-23.7-294zm160 99.3-129 196a3.33 3.33 0 0 1 0.0215 0.465l-25.3 95.7 66.8-27.4 31.7-106a3.33 3.33 0 0 1 1.76-1.89 3.33 3.33 0 0 1 0.152-0.426 3.33 3.33 0 0 1 0.357 0.0625l1.04-0.396a3.33 3.33 0 0 1 0.146-0.113 3.33 3.33 0 0 1 0.0566 0.0371l129-49-52.4-32.3-4.59 1.45a3.33 3.33 0 0 1-4-4.6l0.789-1.66-0.328-0.201a3.33 3.33 0 0 1-1.5-2.1l-15.3-68.2zm-319 0.406-8.76 37.5-6.8 30.3a3.33 3.33 0 0 1-1.5 2.1l-0.33 0.203 0.789 1.66a3.33 3.33 0 0 1-4 4.6l-4.59-1.45-52.4 32.3 129 49a3.33 3.33 0 0 1 0.0566-0.0371 3.33 3.33 0 0 1 0.0293 0.0234 3.33 3.33 0 0 1 0.043-0.0195 3.33 3.33 0 0 1 2.82 2.15 3.33 3.33 0 0 1 0.57 0.613l31.7 106 68 27.9-25-94.5-0.385-0.494a3.33 3.33 0 0 1-0.0527-0.178 3.33 3.33 0 0 1-0.105-0.041l-129-197zm-132 40.4-56.5 72.6 102-8.91 52.1-32.1-96-30.3a3.33 3.33 0 0 1-1.16-1.28zm582 0a3.33 3.33 0 0 1-1.16 1.28l-96 30.3 52.1 32.1 102 8.91-56.5-72.6zm-542 71.2-102 9.77-34.1 225 136-235zm503 0 136 235-34.1-225-102-9.77zm-10.2 1.67-128 48.6 102 123 40-15.6-13.9-156zm-484 0.0156-2.88 31.9-11 124 40 15.6 102-123-128-48.6zm493 9.11 13.3 147 119 82.8-133-229zm-500 0.0625-133 229 119-82.8 11.3-125 1.92-21.5zm358 47.5-28.6 96.6 116 151 1.45-11.5-88.7-236zm-216 0.00391-88.7 236 1.45 11.5 116-151-28.6-96.6zm-10.4 8.62-92.9 112 12.7 101 80.2-213zm237 0 80.2 213 12.7-101-92.9-112zm-137 32.8 19 71.7h0.00195l18.7-70.7-15.5 19.9a3.33 3.33 0 0 1-2.89 1.15 3.33 3.33 0 0 1-2.89-1.15l-16.3-21zm-55.8 59.9-120 155 0.914 7.27 94.5-55.1 10.2-49.6 6.51 1.35-10.2 49.3 26.3 25.3 61.1-105-69.9-28.6zm149 0-69.9 28.6 61.1 105 26.3-25.3-10.2-49.3a3.33 3.33 0 0 1 2.59-3.88 3.33 3.33 0 0 1 3.92 2.54l10.2 49.6 94.5 55.1 0.916-7.28-120-155zm-329 5.49 34.3 148 2.13-133-36.5-15.1zm509 0-36.5 15.1 2.13 133 34.4-148zm-516 0.0762-58.1 41.8 142 319-42.5-184a3.33 3.33 0 0 1-0.256-1.11l-0.447-1.94a3.33 3.33 0 0 1-0.133-0.359l0.0293-0.0801-40.3-174zm523 0-40.3 174 0.0312 0.082a3.33 3.33 0 0 1-0.111 0.975 3.33 3.33 0 0 1-0.172 1.5 3.33 3.33 0 0 1-0.523 0.805l-42.5 184 142-319-58.1-41.8zm-474 59.7-1.51 94.5 10.1-26.6-8.54-67.9zm424 0-8.54 67.9 10.1 26.6-1.51-94.5zm-414 82.4-4.83 12.8 5.54-7.19v-0.00195l-0.709-5.63zm404 0-0.709 5.63v0.00195l5.54 7.19-4.83-12.8zm-402 15-5.15 6.69 5.58-3.25-0.432-3.43zm400 0-0.432 3.43 5.58 3.25-5.15-6.69zm-399 10.6-15.1 8.8 35.4 153-20.3-162zm397 0-20.3 162 35.4-153-15.1-8.8z" color="#000000" fill="#313131" stroke-linecap="round" stroke-linejoin="round" stroke-width="6.65" style="-inkscape-stroke:none;paint-order:markers fill stroke"/>
</svg>

